<?xml version="1.0" encoding="UTF-8"?><svg id="Layer_1" xmlns="http://www.w3.org/2000/svg" viewBox="0 0 438.67 438.64"><path d="M387.48,359.12c-72.89,90.82-212.57,108.33-307.85,29.15C-14.33,310.2-26.97,172.57,51.5,78.27,128.79-14.61,266.76-26.54,360.49,51.66c94.6,78.93,103.05,218.93,26.99,307.46ZM68.18,93.76C-1.43,177.8,10.07,302.15,93.84,371.33c83.57,69.01,207.99,56.82,277.61-27.19,68.51-82.69,56.6-207.91-26.31-276.55C261.69-1.49,137.35,10.26,68.18,93.76Z" fill="#f26822"/><path d="M68.18,93.76C137.35,10.26,261.69-1.49,345.14,67.59c82.91,68.63,94.82,193.86,26.31,276.55-69.62,84.02-194.04,96.2-277.61,27.19C10.07,302.15-1.43,177.8,68.18,93.76Zm122.49,147.43c.36,.17,.72,.34,1.08,.51,2.05-4.31,4.1-8.62,6.15-12.93-4.98-1.11-9.93-3-14.94-3.19-11.66-.44-23.35-.06-35.03-.01-27.6,.12-55.21,.18-82.81,.39-9.73,.07-15.05,4.81-13.86,13.24,4.42,31.14,13.36,60.61,33.83,85.43,7.68,9.31,13.31,9.95,21.76,1.48,28.06-28.18,55.89-56.59,83.81-84.91Zm-73.14,115.51c2.67,1.76,7.04,4.77,11.53,7.58,21.78,13.68,44.78,24.18,70.85,26.26,9.35,.75,14.95-3.93,14.93-13.18-.07-41.92-.35-83.83-.8-125.75-.03-2.84-2.05-5.65-3.15-8.47-3.02,1.2-6.83,1.61-8.95,3.71-29.34,29.14-58.51,58.44-87.56,87.87-7.59,7.69-6.88,13.88,3.15,21.98ZM351.23,111.65c-6.09-5.51-11.77-4.73-18.61,2.22-16,16.24-32.1,32.38-48.16,48.57-13.26,13.37-26.59,26.66-39.65,40.22-1.79,1.86-3.48,5.54-2.8,7.58,.63,1.89,4.41,2.88,6.94,3.95,1.15,.49,2.62,.3,3.95,.29,40.87-.19,81.74-.31,122.61-.66,9.8-.08,14.53-5.27,12.59-14.85-2.94-14.52-6.21-29.08-10.83-43.13-5.41-16.45-13.69-31.62-26.04-44.18Zm-16.29,213.51c8.13,7.29,15.34,6.31,20.67-1.55,2.08-3.07,4.22-6.11,6.27-9.2,14.81-22.37,26.12-46.14,28.75-73.28,1.17-12.06-3.09-16.57-15.23-16.49-19.9,.13-39.8,.25-59.71,.39-20.96,.15-41.93,.21-62.89,.64-3.13,.06-6.23,1.96-9.34,3,1.29,3.26,1.94,7,4,9.65,3.06,3.93,7.18,7.04,10.76,10.59,25.97,25.78,51.91,51.58,76.72,76.24ZM83.18,116.96c-16.93,23.9-30.04,49.42-32.88,79.15-1.09,11.4,3.07,16.18,14.18,16.13,41.16-.18,82.33-.45,123.49-.99,3.26-.04,6.49-2.37,9.73-3.63-1.42-2.94-2.21-6.51-4.37-8.71-18.96-19.31-38.13-38.41-57.32-57.49-10.35-10.29-20.73-20.56-31.4-30.51-7.01-6.54-12.03-5.86-18.08,1.6-1.17,1.44-2.23,2.97-3.34,4.47Zm119.28,74.25c.91,.24,4.95,2.61,6.85,1.45,2.22-1.35,3.57-5.77,3.58-8.86,.1-41.44-.03-82.88-.28-124.32-.05-9.15-6.26-14.82-15.17-12.53-18.96,4.87-38.11,9.63-56.25,16.79-11.03,4.35-20.82,12.5-30.23,20.09-6.47,5.21-5.68,11.18,.24,17.14,5.8,5.84,11.7,11.57,17.56,17.36,23.97,23.7,47.94,47.4,73.7,72.88Zm37.28,58.7s-.05,.05-.07,.07c-.96-.92-1.78-2.08-2.91-2.71-2.85-1.58-5.83-2.92-8.76-4.35-1.27,3.3-2.71,6.54-3.75,9.91-.45,1.46-.11,3.17-.11,4.76,.13,39.05,.26,78.09,.42,117.14,.05,11.83,4.87,16.73,16.32,14.19,16.27-3.61,32.82-7.21,48.14-13.51,13.01-5.35,24.98-13.8,36.39-22.25,7.61-5.63,6.93-12.19,.05-18.98-28.52-28.14-57.14-56.19-85.73-84.27Zm80.84-165.57c-23.95-16.79-49.02-29.65-78.13-32.76-13.39-1.43-17.66,2.43-17.6,15.66,.18,38.79,.33,77.57,.87,116.35,.07,5.1,2.39,10.17,3.67,15.26,4.52-2.85,9.72-5.02,13.46-8.67,16.5-16.15,32.6-32.71,48.82-49.15,11.18-11.34,22.47-22.58,33.44-34.13,7.93-8.35,7.3-13.05-1.81-20.32-1.04-.83-2.04-1.69-2.7-2.23Z" fill="#fdc58b"/><path d="M190.67,241.19c-27.92,28.32-55.75,56.73-83.81,84.91-8.44,8.48-14.08,7.83-21.76-1.48-20.47-24.83-29.41-54.29-33.83-85.43-1.2-8.42,4.12-13.16,13.86-13.24,27.6-.21,55.21-.27,82.81-.39,11.68-.05,23.37-.43,35.03,.01,5.01,.19,9.96,2.07,14.94,3.19-2.05,4.31-3.98,7-6.03,11.31-.56,.56-.63,.62-1.2,1.12Zm-12.1,4.68c4.26-6.42,4.18-11.52-.49-11.14-7.94,.65-15.96,2.5-23.42,5.29-2.15,.8-4.27,7.35-3.15,9.74,1.19,2.55,6.75,5.19,9.49,4.44,6.15-1.68,11.74-5.43,17.56-8.33Z" fill="#feea59"/><path d="M117.53,356.7c-10.02-8.1-10.74-14.29-3.15-21.98,29.05-29.43,58.22-58.73,87.56-87.87,2.12-2.11,5.93-2.51,8.95-3.71,1.1,2.82,3.12,5.64,3.15,8.47,.45,41.91,.73,83.83,.8,125.75,.01,9.25-5.58,13.93-14.93,13.18-26.07-2.08-49.07-12.57-70.85-26.26-4.49-2.82-8.86-5.82-11.53-7.58Zm88.2-102.18c-8.9,5.74-14.8,13.02-15.94,23-.33,2.86,2.15,7.79,4.55,8.73,2.54,1,7.35-.67,9.69-2.8,6.22-5.67,6.99-20.23,1.7-28.94Z" fill="#feea59"/><path d="M351.23,111.66c12.36,12.56,20.64,27.73,26.05,44.18,4.62,14.05,7.89,28.61,10.83,43.13,1.94,9.57-2.79,14.76-12.59,14.85-40.87,.35-81.74,.47-122.61,.66-1.32,0-2.79,.2-3.95-.29-2.53-1.07-6.31-2.05-6.94-3.95-.68-2.04,1.01-5.71,2.8-7.58,13.05-13.56,26.39-26.85,39.65-40.22,16.05-16.19,32.16-32.33,48.16-48.57,6.84-6.95,12.52-7.73,18.6-2.21Zm-71.37,89.32c.17-2.1,1.76-6.23,.34-8.2-1.75-2.45-6.19-4.64-9.13-4.26-9.32,1.19-15.44,7.62-19.73,15.55-.57,1.05,1.75,5.3,2.84,5.35,8.88,.39,17.36-1.2,25.68-8.43Z" fill="#feea59"/><path d="M334.94,325.16c-24.81-24.66-50.76-50.46-76.72-76.24-3.58-3.55-7.69-6.66-10.76-10.59-2.06-2.65-2.72-6.39-4-9.65,3.11-1.05,6.21-2.94,9.34-3,20.96-.43,41.93-.49,62.89-.64,19.9-.15,39.8-.26,59.71-.39,12.13-.08,16.4,4.43,15.23,16.49-2.63,27.14-13.94,50.9-28.75,73.28-2.05,3.09-4.18,6.13-6.27,9.2-5.33,7.86-12.53,8.84-20.67,1.55Zm-77.86-83.7c5.35,2.52,9.67,5.48,14.39,6.43,2.97,.59,8.98-1.33,9.33-3.02,.73-3.49-.22-8.95-2.67-11.08-3.52-3.06-8.88-4.79-13.66-5.35-4.33-.51-8.93,1.32-13.41,2.11,2.05,3.71,4.09,7.43,6.01,10.91Z" fill="#feea59"/><path d="M83.18,116.96c1.11-1.49,2.17-3.02,3.34-4.47,6.05-7.46,11.08-8.14,18.08-1.6,10.67,9.96,21.04,20.23,31.4,30.51,19.2,19.07,38.36,38.18,57.32,57.49,2.17,2.21,2.95,5.78,4.37,8.71-3.24,1.26-6.47,3.59-9.73,3.63-41.16,.54-82.33,.81-123.49,.99-11.11,.05-15.27-4.73-14.18-16.13,2.84-29.73,15.95-55.25,32.88-79.15Zm107.79,86.76c-4.88-9.3-12.63-14.78-22.71-16.27-2.76-.41-7.73,2.25-8.68,4.67-1.01,2.6,.59,7.4,2.7,9.81,5.32,6.06,20.58,6.85,28.68,1.79Z" fill="#feea59"/><path d="M202.47,191.21c-25.77-25.48-49.73-49.18-73.7-72.88-5.85-5.79-11.76-11.52-17.56-17.36-5.92-5.96-6.71-11.93-.24-17.14,9.42-7.59,19.2-15.73,30.23-20.09,18.14-7.16,37.29-11.93,56.25-16.79,8.9-2.28,15.11,3.39,15.17,12.53,.25,41.44,.38,82.88,.28,124.32,0,3.09-1.36,7.51-3.58,8.86-1.9,1.15-5.94-1.22-6.85-1.45Zm-7.52-12.16c3.57,1.28,6.44,2.31,9.31,3.33,.72-3.13,2.43-6.41,1.95-9.34-.92-5.64-2.19-11.63-5.08-16.4-1.64-2.69-6.81-3.23-10.39-4.74-1.59,3.85-5.14,8.2-4.32,11.45,1.42,5.61,5.56,10.53,8.54,15.71Z" fill="#feea59"/><path d="M239.74,249.91c28.58,28.08,57.21,56.12,85.73,84.27,6.88,6.79,7.56,13.35-.05,18.98-11.41,8.45-23.38,16.9-36.39,22.25-15.32,6.3-31.87,9.9-48.14,13.51-11.45,2.54-16.27-2.36-16.32-14.19-.16-39.05-.28-78.09-.42-117.14,0-1.59-.34-3.3,.11-4.76,1.04-3.37,2.47-6.61,3.75-9.91,2.93,1.44,5.91,2.77,8.76,4.35,1.12,.62,1.95,1.79,2.91,2.71,.02-.02,.05-.05,.07-.07Zm-9.82,1.33c-.8,10,.49,19.43,7.47,27.02,1.84,2,6.42,3.04,9.08,2.26,2.17-.64,4.42-4.52,4.76-7.19,1.16-9.25-10.57-21.57-21.31-22.08Z" fill="#feea59"/><path d="M320.58,84.34c.65,.54,1.66,1.41,2.7,2.23,9.12,7.27,9.74,11.97,1.81,20.32-10.96,11.55-22.25,22.79-33.44,34.13-16.22,16.44-32.31,33.01-48.82,49.15-3.74,3.66-8.93,5.82-13.46,8.67-1.28-5.09-3.6-10.16-3.67-15.26-.55-38.78-.69-77.57-.87-116.35-.06-13.23,4.21-17.1,17.6-15.66,29.11,3.12,54.18,15.97,78.13,32.76Zm-74.79,95.29c2.37-4.88,5.51-8.78,5.92-12.95,.37-3.71-2.27-7.73-3.59-11.61-4.04,1.76-9.07,2.59-11.83,5.54-2.6,2.77-3.68,7.75-3.82,11.81-.16,4.4,1.54,8.86,2.43,13.29,3.75-2.1,7.51-4.2,10.89-6.09Z" fill="#feea59"/><path d="M273.04,231.04c13.52,5.82,16.58,14.25,15.22,17.43-1.37,3.18-8.96,5.31-22.47-.51-13.52-5.82-17.33-12.49-15.97-15.68,1.37-3.18,9.71-7.06,23.22-1.24Z" fill="#fff"/><path d="M249.19,265.51c5.8,13.53,1.93,21.88-1.41,23.32-3.34,1.44-10.55-2.14-16.35-15.66-5.8-13.53-3.77-21.09-.42-22.53s12.39,1.34,18.19,14.87Z" fill="#fff"/><path d="M209.89,275.79c-4.04,14.15-12.32,18.18-15.83,17.18s-6.83-8.32-2.78-22.47c4.04-14.15,10.4-18.73,13.9-17.73,3.5,.99,8.75,8.86,4.71,23.02Z" fill="#fff"/><path d="M167.76,253.13c-13.93,4.75-21.96,.25-23.14-3.2s2.94-10.35,16.87-15.1c13.93-4.75,21.31-2.14,22.49,1.3,1.18,3.44-2.29,12.25-16.22,17Z" fill="#fff"/><path d="M175.43,188.53c13.71,5.37,16.93,13.99,15.61,17.38s-8.93,6.01-22.63,.64c-13.71-5.37-17.66-12.13-16.33-15.52,1.32-3.39,9.65-7.87,23.36-2.51Z" fill="#fff"/><path d="M204.7,160.2c5.8,13.53,1.93,21.88-1.41,23.32s-10.55-2.14-16.35-15.66c-5.8-13.53-3.77-21.09-.42-22.53s12.39,1.34,18.19,14.87Z" fill="#fff"/><path d="M251.39,173.35c-6.78,13.06-15.7,15.36-18.93,13.69s-5.03-9.51,1.75-22.57c6.78-13.06,13.92-16.28,17.16-14.61s6.81,10.43,.03,23.49Z" fill="#fff"/><path d="M272.1,207.46c-13.29,6.33-21.79,2.79-23.36-.5s1.72-10.62,15.01-16.95c13.29-6.33,20.92-4.59,22.49-1.31s-.86,12.43-14.14,18.76Z" fill="#fff"/></svg>