<?xml version="1.0" encoding="UTF-8"?>
<svg id="Layer_2" data-name="Layer 2" xmlns="http://www.w3.org/2000/svg" viewBox="0 0 1253.57 498.43">
  <defs>
    <style>
      .cls-1, .cls-2 {
        fill: #fff;
      }

      .cls-2 {
        font-family: Ubuntu, Ubuntu;
        font-size: 239px;
      }
    </style>
  </defs>
  <g id="Layer_1-2" data-name="Layer 1">
    <path class="cls-1" d="m.08,352.76s33.86,137.8,337.88,126.52c222.73-8.26,262.91-144.17,262.91-144.17l-33.86-36.68s-56.69,78.74-126.77,78.74c-44.88,0-90.53-77.03-103.94-121.26-15.75-51.97-22.05-162.99-6.3-188.98C346.78,39.25,402.45,0,474.89,0c86.61,0,136.22,25.2,158.27,45.67s20.47,111.02,14.96,173.23-18.22,97.64-18.22,97.64l65.46,48.82-21.26,38.58-57.48-55.12s-61.4,149.57-294.49,149.61C-13.98,498.47.08,352.76.08,352.76Zm611.31-46.59s14.67-42.39,17.82-108.53c3.07-64.49-4.84-124.19-12.6-136.22-15.75-24.41-61.87-37.8-131.16-37.01s-117.42,20.9-132.62,41.73c-10.16,13.93-14.17,111.81,3.15,180.71,15.27,60.73,61.42,106.69,81.1,107.47,79.47,3.18,125.98-90.55,125.98-90.55l48.32,42.39Z"/>
    <text class="cls-2" transform="translate(662.19 324.92)"><tspan x="0" y="0">uatro</tspan></text>
  </g>
</svg>