<?xml version="1.0" encoding="UTF-8"?>
<svg id="Layer_2" data-name="Layer 2" xmlns="http://www.w3.org/2000/svg" viewBox="0 0 346.26 388.72">
  <defs>
    <style>
      .cls-1 {
        fill: #ffdbb3;
      }

      .cls-2 {
        fill: #8e272d;
      }

      .cls-3 {
        fill: #557b3f;
      }

      .cls-4 {
        fill: #fff;
        stroke: #c7b299;
        stroke-miterlimit: 10;
      }
    </style>
  </defs>
  <g id="Layer_1-2" data-name="Layer 1">
    <g id="apple">
      <path class="cls-2" d="m337.05,153.38c-10.6-29.11-29.13-50.48-59.58-60.02-14.39-4.51-28.97-5.88-43.87-3.27-21.54,3.77-39.49,14.53-55.68,28.68-1.79,1.56-3.57,3.12-5.22,4.56-6.17-4.75-11.66-9.35-17.52-13.41-21.8-15.09-45.63-23.09-72.34-18.48C31.8,100.26,11.34,136.1,3.38,175.45c-5.65,27.9-3.91,55.98,2.97,83.61,2.83,11.35,5.71,22.74,9.48,33.8,8.73,25.59,20.3,49.73,39,69.78,10.42,11.18,22.59,19.59,37.87,22.76,17.37,3.61,34.9,4.12,52.47,2.23,10.49-1.13,20.8-3.3,29.93-9.55,8.17,5.53,17.53,7.61,27.15,8.5,6.97.65,13.99.92,21,1.02.14-.06.31-.09.51-.07.61.06,1.22.11,1.82.15.17-.22.45-.37.82-.36,1.26.04,2.52-.08,3.78-.06,1.19.02,2.39.07,3.58.08,4.17-.65,8.42-.82,12.64-1.25,20.46-2.08,37.83-10.22,50.51-26.78,5.92-7.73,11.8-15.63,16.5-24.12,16.85-30.4,26.22-63.27,30.79-97.59,3.81-28.59,2.83-56.84-7.15-84.23Zm-10.94,62.78c-2.13,39.2-11.89,76.48-31.1,110.89-4.63,8.3-10.7,15.93-16.87,23.22-7.28,8.6-17.02,13.42-28.21,15.2-16.83,2.67-33.71,3.51-50.55.53-4.68-.83-9.33-2.74-13.55-4.99-6.7-3.57-13.67-4.95-19.93-.71-9.01,6.1-19.06,7.72-29.25,7.92-11.99.24-24.05-.49-36-1.66-13.54-1.33-23.84-9.06-32.58-18.94-16.39-18.51-26.38-40.53-34.21-63.63-8.03-23.71-13.04-48.02-13.59-72.21-.06-20.33,2.5-39.24,10.33-57.17,17.22-39.45,60.32-55.63,98.94-36.53,9.37,4.63,17.98,11.11,26.18,17.7,12.59,10.12,21.66,10.36,33.62-.46,13.73-12.42,28.85-22.43,47.49-25.57,32.74-5.51,62.67,10.16,77.24,40.32,10.09,20.89,13.3,43.23,12.05,66.08Z"/>
      <path class="cls-1" d="m20.26,211.79c-.06-20.33,2.5-39.24,10.33-57.17,17.22-39.45,60.32-55.63,98.94-36.53,9.37,4.63,17.98,11.11,26.18,17.7,12.59,10.12,21.66,10.36,33.62-.46,13.73-12.42,28.85-22.43,47.49-25.57,32.74-5.51,62.67,10.16,77.24,40.32,10.09,20.89,13.3,43.23,12.05,66.08-2.13,39.2-11.89,76.48-31.1,110.89-4.63,8.3-10.7,15.93-16.87,23.22-7.28,8.6-17.02,13.42-28.21,15.2-16.83,2.67-33.71,3.51-50.55.53-4.68-.83-9.33-2.74-13.55-4.99-6.7-3.57-13.67-4.95-19.93-.71-9.01,6.1-19.06,7.72-29.25,7.92-11.99.24-24.05-.49-36-1.66-13.54-1.33-23.84-9.06-32.58-18.94-16.39-18.51-26.38-40.53-34.21-63.63-8.03-23.71-13.04-48.02-13.59-72.21Zm172.63,18.2c-7.4,8.58-2.38,24.69,9.68,27.31,6.58-11.32,2.47-22.92-9.68-27.31Zm-35.84.15c-12.45,5.95-16.07,17.98-8.64,27.92,12.35-5.63,16.02-17.18,8.64-27.92Z"/>
      <path class="cls-4" d="m192.89,229.98c12.15,4.39,16.26,15.99,9.68,27.31-12.06-2.62-17.07-18.74-9.68-27.31Z"/>
      <path class="cls-4" d="m157.05,230.13c7.38,10.75,3.71,22.29-8.64,27.92-7.42-9.95-3.8-21.97,8.64-27.92Z"/>
      <g>
        <path class="cls-3" d="m265.11.45c-.77,6.88-1.16,13.83-2.39,20.63-6.27,34.79-26.65,57.87-59.72,69.37-15.41,5.36-31.5,5.97-47.6,2.03-4.3-1.05-6.17-3.08-6.25-7.66-.5-28.15,14.76-54.54,49.5-58.72,24.49-2.95,45.82-10.88,64.84-26.09.54.15,1.08.3,1.63.45Z"/>
        <path class="cls-3" d="m169.62,130.97c.1.33.26.64.5.9,1.87,2.07,4.41,4.28,6.43,2.27.51-.51.88-1.28,1.23-2.04.16-.34.23-.72.22-1.1-1.5-39.86-19.39-70.81-48.45-96.85-1.63-1.46-4.18-.14-3.97,2.05,0,.02,0,.04,0,.06,1.11,11.91-3.23,21.11-14.61,27.38-1.74.96-1.64,3.49.18,4.28,29.16,12.61,49.5,32.7,58.47,63.06Z"/>
      </g>
    </g>
  </g>
</svg>